<?xml version="1.0" encoding="utf-8"?><svg xmlns="http://www.w3.org/2000/svg" xmlns:xlink="http://www.w3.org/1999/xlink"><symbol viewBox="0 0 12 6" id="_drop-arrow" xmlns="http://www.w3.org/2000/svg"><path d="M11 1L6 5 1 1"/></symbol><symbol viewBox="0 0 30 30" id="_insta" xmlns="http://www.w3.org/2000/svg"><path d="M0 15C0 6.716 6.716 0 15 0c8.284 0 15 6.716 15 15 0 8.284-6.716 15-15 15-8.284 0-15-6.716-15-15z"/><path fill-rule="evenodd" clip-rule="evenodd" d="M0 15C0 6.716 6.716 0 15 0c8.284 0 15 6.716 15 15 0 8.284-6.716 15-15 15-8.284 0-15-6.716-15-15z"/><path fill="#fff" fill-rule="evenodd" clip-rule="evenodd" d="M15 7c-2.172 0-2.445.01-3.298.048-.852.04-1.433.174-1.942.372a3.917 3.917 0 00-1.417.922A3.927 3.927 0 007.42 9.76c-.199.51-.333 1.09-.372 1.942C7.01 12.555 7 12.827 7 15s.01 2.445.048 3.298c.04.852.174 1.433.372 1.942.205.526.478.972.923 1.417.444.445.89.719 1.416.923.51.198 1.09.333 1.942.372.854.038 1.126.048 3.299.048s2.444-.01 3.298-.048c.851-.04 1.433-.174 1.943-.372a3.913 3.913 0 001.416-.923c.445-.445.718-.891.923-1.417.197-.51.332-1.09.372-1.942.038-.853.048-1.125.048-3.298s-.01-2.445-.048-3.299c-.04-.851-.175-1.433-.372-1.941a3.926 3.926 0 00-.923-1.418 3.91 3.91 0 00-1.417-.922c-.51-.198-1.092-.333-1.943-.372C17.443 7.01 17.172 7 14.998 7h.003zm-.266 1.442h.267c2.136 0 2.389.007 3.232.046.78.035 1.204.166 1.486.275.373.145.64.318.92.598.28.28.453.547.598.92.11.282.24.705.275 1.486.039.843.047 1.096.047 3.231s-.008 2.389-.047 3.232c-.035.78-.166 1.203-.275 1.485-.145.373-.319.639-.599.919-.28.28-.546.453-.92.598-.28.11-.705.24-1.485.276-.843.038-1.096.047-3.232.047s-2.39-.009-3.233-.047c-.78-.036-1.203-.166-1.485-.276a2.478 2.478 0 01-.92-.598 2.48 2.48 0 01-.6-.92c-.109-.281-.24-.705-.275-1.485-.038-.843-.046-1.096-.046-3.233 0-2.136.008-2.388.046-3.232.036-.78.166-1.203.276-1.485.145-.373.319-.64.599-.92.28-.28.546-.453.92-.599.282-.11.705-.24 1.485-.275.738-.034 1.024-.044 2.515-.045v.002h.45zm3.577 2.288a.96.96 0 111.92 0 .96.96 0 01-1.92 0zm-3.31.162a4.108 4.108 0 100 8.217 4.108 4.108 0 000-8.217zM17.667 15a2.667 2.667 0 10-5.333 0 2.667 2.667 0 005.333 0z"/></symbol><symbol viewBox="0 0 11 14" id="_play-btn" xmlns="http://www.w3.org/2000/svg"><path d="M10.343 7L.828 13.408V.591L10.343 7z"/></symbol><symbol viewBox="0 0 16 14" id="_slider-arow" xmlns="http://www.w3.org/2000/svg"><path d="M16 7H1m0 0l5-6M1 7l5 6"/></symbol><symbol viewBox="0 0 30 30" id="_telegram" xmlns="http://www.w3.org/2000/svg"><path fill-rule="evenodd" clip-rule="evenodd" d="M0 15c0 8.284 6.716 15 15 15 8.284 0 15-6.716 15-15 0-8.284-6.716-15-15-15C6.716 0 0 6.716 0 15zm12.25 6.875l.255-3.824 6.956-6.277c.305-.27-.067-.403-.472-.157l-8.584 5.416-3.708-1.158c-.801-.245-.807-.795.18-1.19l14.448-5.572c.66-.3 1.297.159 1.045 1.169l-2.46 11.595c-.172.824-.67 1.021-1.36.64l-3.748-2.769L13 21.5a2.662 2.662 0 00-.017.017c-.201.196-.368.358-.733.358z"/></symbol></svg>