<?xml version="1.0" encoding="utf-8"?><svg xmlns="http://www.w3.org/2000/svg" xmlns:xlink="http://www.w3.org/1999/xlink"><symbol viewBox="0 0 16 14" id="_arrow-left" xmlns="http://www.w3.org/2000/svg"><path d="M16 7H1m0 0l5-6M1 7l5 6"/></symbol><symbol viewBox="0 0 16 14" id="_arrow-right" xmlns="http://www.w3.org/2000/svg"><path d="M0 7h15m0 0l-5-6m5 6l-5 6"/></symbol><symbol viewBox="0 0 12 6" id="_drop-arrow" xmlns="http://www.w3.org/2000/svg"><path d="M11 1L6 5 1 1"/></symbol><symbol viewBox="0 0 16 16" id="_insta" xmlns="http://www.w3.org/2000/svg"><path fill-rule="evenodd" clip-rule="evenodd" d="M8 0C5.829 0 5.556.01 4.703.048 3.85.088 3.27.222 2.76.42a3.917 3.917 0 00-1.417.922A3.927 3.927 0 00.42 2.76C.222 3.27.086 3.85.048 4.701.01 5.554 0 5.827 0 8s.01 2.444.048 3.298c.04.851.174 1.433.372 1.941.205.527.478.973.923 1.418.444.445.89.719 1.416.923.51.198 1.09.333 1.942.372C5.555 15.99 5.827 16 8 16s2.444-.01 3.298-.048c.851-.04 1.433-.174 1.943-.372a3.913 3.913 0 001.416-.923c.445-.445.718-.891.923-1.417.197-.51.332-1.09.372-1.942C15.99 10.445 16 10.173 16 8s-.01-2.445-.048-3.299c-.04-.851-.175-1.433-.372-1.941a3.926 3.926 0 00-.923-1.418A3.91 3.91 0 0013.24.42c-.51-.198-1.092-.333-1.943-.372C10.443.01 10.172 0 7.998 0h.003zm-.266 1.442h.267c2.136 0 2.389.007 3.232.046.78.035 1.204.166 1.486.275.373.145.64.318.92.598.28.28.453.547.598.92.11.282.24.705.275 1.485.039.844.047 1.097.047 3.232 0 2.135-.008 2.388-.047 3.232-.035.78-.166 1.203-.275 1.485-.145.373-.319.639-.599.919-.28.28-.546.453-.92.598-.28.11-.705.24-1.485.276-.843.038-1.096.047-3.232.047s-2.39-.009-3.233-.047c-.78-.036-1.203-.166-1.485-.276a2.478 2.478 0 01-.92-.598 2.48 2.48 0 01-.6-.92c-.109-.282-.24-.705-.275-1.485-.038-.843-.046-1.096-.046-3.233 0-2.136.008-2.388.046-3.232.036-.78.166-1.203.276-1.485.145-.373.319-.64.598-.92.28-.28.547-.453.92-.599.283-.11.706-.24 1.486-.275.738-.034 1.024-.044 2.515-.045v.002h.45zM11.31 3.73a.96.96 0 111.92 0 .96.96 0 01-1.92 0zm-3.31.162a4.109 4.109 0 100 8.217 4.109 4.109 0 000-8.217zM10.667 8a2.667 2.667 0 10-5.333 0 2.667 2.667 0 005.333 0z"/></symbol><symbol viewBox="0 0 11 14" id="_play-btn" xmlns="http://www.w3.org/2000/svg"><path d="M10.343 7L.828 13.408V.591L10.343 7z"/></symbol><symbol viewBox="0 0 512 512" id="_telegram" xmlns="http://www.w3.org/2000/svg"><path d="M470.435 45.423L16.827 221.249c-18.254 8.188-24.428 24.585-4.412 33.484l116.37 37.173 281.368-174.79c15.363-10.973 31.091-8.047 17.557 4.024L186.053 341.075l-7.591 93.076c7.031 14.371 19.905 14.438 28.117 7.295l66.858-63.589 114.505 86.187c26.595 15.826 41.066 5.613 46.788-23.394l75.105-357.47c7.798-35.705-5.5-51.437-39.4-37.757z"/></symbol></svg>