<svg width="95" height="28" viewBox="0 0 95 28" fill="none" xmlns="http://www.w3.org/2000/svg">
<path d="M14.7779 9.68417C14.5939 7.62951 13.9806 6.09617 12.9379 5.08417C11.8953 4.07217 10.3926 3.56617 8.42995 3.56617C7.04995 3.56617 5.79261 3.76551 4.65795 4.16417L4.05995 7.33817L1.06995 6.69417L2.03595 1.72617C3.20128 1.32751 4.28995 1.03617 5.30195 0.852172C6.34461 0.668172 7.55595 0.576172 8.93595 0.576172C11.9413 0.576172 14.2873 1.52684 15.9739 3.42817C17.6606 5.32951 18.5039 7.90551 18.5039 11.1562C18.5039 14.3455 17.5993 16.9062 15.7899 18.8382C13.9806 20.7395 11.5426 21.6902 8.47595 21.6902C6.97328 21.6902 5.62395 21.5215 4.42795 21.1842C3.26261 20.8468 2.05128 20.3408 0.793945 19.6662L1.98995 16.9982C2.97128 17.5808 3.95261 18.0255 4.93395 18.3322C5.91528 18.6082 7.08061 18.7462 8.42995 18.7462C10.3619 18.7462 11.8646 18.1942 12.9379 17.0902C14.0113 15.9555 14.6246 14.3148 14.7779 12.1682L11.1899 12.3522H6.91195V9.50017H11.3279L14.7779 9.68417Z" fill="black"/>
<path d="M21.3633 18.1481H24.0313C25.1659 17.6268 25.9479 16.4614 26.3773 14.6521C26.8066 12.8121 27.1439 10.6041 27.3893 8.02811L27.7573 4.11811H24.0313V1.26611H45.4673V4.11811H41.1893V18.1481H45.4673V27.5321H41.9713V21.0001H24.8593V27.5321H21.3633V18.1481ZM37.6933 18.1481V4.11811H30.7933L30.3793 8.53411C30.1339 11.3248 29.8426 13.4408 29.5053 14.8821C29.1986 16.3234 28.7079 17.4121 28.0333 18.1481H37.6933Z" fill="#00ADB5"/>
<rect x="37" y="1.00024" width="10" height="27" fill="white"/>
<path d="M60.1781 18.6542C58.9514 19.6968 57.6941 20.4635 56.4061 20.9542C55.1181 21.4448 53.6767 21.6902 52.0821 21.6902C48.8007 21.6902 46.2094 20.7548 44.3081 18.8842C42.4067 17.0135 41.4561 14.4222 41.4561 11.1102C41.4561 9.02484 41.8701 7.18484 42.6981 5.59017C43.5261 3.99551 44.6914 2.76884 46.1941 1.91017C47.7274 1.02084 49.4907 0.576172 51.4841 0.576172C54.2441 0.576172 56.4214 1.45017 58.0161 3.19817C59.6107 4.91551 60.4081 7.24617 60.4081 10.1902C60.4081 10.5582 60.3774 11.1408 60.3161 11.9382L44.9981 12.0302C45.1207 14.2688 45.8261 15.9402 47.1141 17.0442C48.4327 18.1482 50.0427 18.7002 51.9441 18.7002C54.5507 18.7002 56.7434 17.9642 58.5221 16.4922L60.1781 18.6542ZM56.8661 9.13217C56.8354 7.41484 56.3294 6.03484 55.3481 4.99217C54.3974 3.91884 53.1247 3.38217 51.5301 3.38217C49.8741 3.38217 48.4327 3.91884 47.2061 4.99217C46.0101 6.06551 45.2894 7.46084 45.0441 9.17817L56.8661 9.13217Z" fill="black"/>
<path d="M94.8013 4.11817H90.8913V18.1482H94.8013V21.0002H84.7733V18.1482H87.3033V3.70417L80.4953 18.1942H77.8733L70.7893 3.79617V18.1482H73.3193V21.0002H63.2913V18.1482H67.2013V4.11817H63.2913V1.26617H73.0893L79.3453 14.3762L85.5093 1.26617H94.8013V4.11817Z" fill="black"/>
</svg>
