<?xml version="1.0" encoding="utf-8"?>
<svg version="1.1" id="Слой_1" xmlns="http://www.w3.org/2000/svg" xmlns:xlink="http://www.w3.org/1999/xlink" x="0px" y="0px"
	 viewBox="0 0 95 28" style="enable-background:new 0 0 95 28;" xml:space="preserve">
<style type="text/css">
	.st0{fill:#00ADB5;}
</style>
<path d="M14.8,9.7c-0.2-2.1-0.8-3.6-1.8-4.6c-1-1-2.5-1.5-4.5-1.5C7,3.6,5.8,3.8,4.7,4.2L4.1,7.3l-3-0.6l1-5C3.2,1.3,4.3,1,5.3,0.9
	c1-0.2,2.3-0.3,3.6-0.3c3,0,5.4,1,7,2.9c1.7,1.9,2.5,4.5,2.5,7.7c0,3.2-0.9,5.8-2.7,7.7c-1.8,1.9-4.2,2.9-7.3,2.9
	c-1.5,0-2.9-0.2-4-0.5c-1.2-0.3-2.4-0.8-3.6-1.5L2,17c1,0.6,2,1,2.9,1.3c1,0.3,2.1,0.4,3.5,0.4c1.9,0,3.4-0.6,4.5-1.7
	c1.1-1.1,1.7-2.8,1.8-4.9l-3.6,0.2H6.9V9.5h4.4L14.8,9.7z"/>
<path class="st0" d="M37,18.1h-9c0.7-0.7,1.2-1.8,1.5-3.3c0.3-1.4,0.6-3.6,0.9-6.3l0.4-4.4H37c0-1.2,0,0,0-2.9l-13,0v2.9h3.7L27.4,8
	c-0.2,2.6-0.6,4.8-1,6.6c-0.4,1.8-1.2,3-2.3,3.5h-2.7v9.4h3.5V21H37C37,18.1,37,21,37,18.1z"/>
<path d="M60.2,18.7c-1.2,1-2.5,1.8-3.8,2.3c-1.3,0.5-2.7,0.7-4.3,0.7c-3.3,0-5.9-0.9-7.8-2.8c-1.9-1.9-2.9-4.5-2.9-7.8
	c0-2.1,0.4-3.9,1.2-5.5c0.8-1.6,2-2.8,3.5-3.7c1.5-0.9,3.3-1.3,5.3-1.3c2.8,0,4.9,0.9,6.5,2.6c1.6,1.7,2.4,4,2.4,7
	c0,0.4,0,1-0.1,1.7L45,12c0.1,2.2,0.8,3.9,2.1,5c1.3,1.1,2.9,1.7,4.8,1.7c2.6,0,4.8-0.7,6.6-2.2L60.2,18.7z M56.9,9.1
	c0-1.7-0.5-3.1-1.5-4.1c-1-1.1-2.2-1.6-3.8-1.6c-1.7,0-3.1,0.5-4.3,1.6C46,6.1,45.3,7.5,45,9.2L56.9,9.1z"/>
<path d="M94.8,4.1h-3.9v14h3.9V21h-10v-2.9h2.5V3.7l-6.8,14.5h-2.6L70.8,3.8v14.4h2.5V21h-10v-2.9h3.9v-14h-3.9V1.3h9.8l6.3,13.1
	l6.2-13.1h9.3V4.1z"/>
</svg>
